<svg class="_siteLogo__image_hu8cyn_1" fill="none" viewBox="0 0 64 64">
	<defs>
		<linearGradient gradientUnits="userSpaceOnUse" id="_r_0_" x1="0.85" x2="62.62" y1="62.72" y2="1.81">
			<stop stop-color="#FF9419"/>
			<stop offset="0.43" stop-color="#FF021D"/>
			<stop offset="0.99" stop-color="#E600FF"/>
		</linearGradient>
	</defs>
	<path d="M20.34 3.66 3.66 20.34A12.504 12.504 0 0 0 0 29.18V59c0 2.76 2.24 5 5 5h29.82c3.32 0 6.49-1.32 8.84-3.66l16.68-16.68c2.34-2.34 3.66-5.52 3.66-8.84V5c0-2.76-2.24-5-5-5H29.18c-3.32 0-6.49 1.32-8.84 3.66Z" fill="url(#_r_0_)"/>
	<path d="M48 16H8v40h40V16Z" fill="#000"/>
	<path d="M30 47H13v4h17v-4Z" fill="#fff"/>
</svg>