<svg width="24" height="24" viewBox="0 0 24 24" fill="none" xmlns="http://www.w3.org/2000/svg">
<path d="M5.77673 12.2275C7.15534 16.3246 11.696 18.5617 15.9175 17.2233C17.3224 16.7774 18.5147 15.9915 19.4304 14.9908C18.5487 16.9775 16.8255 18.6011 14.5405 19.3252C10.319 20.6636 5.77907 18.4272 4.3997 14.3301C3.47938 11.5961 4.19956 8.72537 6.03409 6.72009C5.28681 8.40391 5.14386 10.3481 5.77673 12.2275ZM11.3877 7.37615C9.55937 6.53308 7.37325 7.28806 6.50468 9.06306C6.21569 9.65344 6.10905 10.2825 6.16238 10.8898C5.76285 9.98417 5.7505 8.92242 6.22031 7.96189C7.08888 6.18766 9.27501 5.43191 11.1033 6.27498C12.3227 6.83755 13.0753 7.96885 13.1828 9.18669C12.8435 8.41858 12.2261 7.7633 11.3877 7.37615ZM14.872 12.6965C17.0504 10.8056 17.2366 7.56006 15.2893 5.44582C14.6409 4.74262 13.8373 4.25347 12.9741 3.98301C14.44 3.97296 15.9036 4.55098 16.9577 5.69464C18.9058 7.8081 18.7195 11.0544 16.5411 12.9446C15.0884 14.2057 13.1155 14.5449 11.3853 14.0032C12.6279 13.9947 13.8728 13.5635 14.872 12.6965Z" fill="#0284C7"/>
<path d="M14.5296 9.48546C14.654 10.6554 14.3194 11.7682 13.6665 12.6561C14.9932 11.7133 15.783 10.1323 15.6014 8.43144C15.3301 5.88138 12.9795 4.02756 10.3521 4.29106C8.93028 4.43403 7.71859 5.16814 6.94893 6.21521C7.61041 5.74537 8.4056 5.43396 9.27952 5.34586C11.9069 5.08236 14.2576 6.9354 14.5296 9.48546ZM11.6403 16.536C15.0489 17.5545 18.663 15.6992 19.7124 12.391C20.2804 10.6013 19.9806 8.75292 19.0455 7.27156C19.2982 8.31786 19.2774 9.44066 18.9281 10.5418C17.8787 13.8492 14.2654 15.7053 10.8567 14.6869C9.29271 14.2193 8.04468 13.2279 7.25188 11.973C7.75875 14.0694 9.36688 15.8568 11.6403 16.536Z" fill="#12B76A"/>
</svg>
