<svg width="32" height="32" viewBox="0 0 16 16" fill="#2AB5E8" stroke="none" xmlns="http://www.w3.org/2000/svg" ><path d="M8.57956 8.11839L8.08981 8.60818C8.02439 8.67356 7.91837 8.67356 7.85299 8.60818L7.36324 8.11843C7.29786 8.05305 7.29786 7.94703 7.36324 7.88165L7.85299 7.39186C7.91841 7.32643 8.02443 7.32643 8.08986 7.39186L8.57956 7.8816C8.64494 7.94698 8.64494 8.05301 8.57956 8.11839M9.60409 7.50174L8.46965 6.3673C8.19452 6.09217 7.74836 6.09217 7.47319 6.3673L6.3387 7.50183C6.06348 7.77701 6.06348 8.22312 6.3387 8.49834L7.4731 9.63273C7.74827 9.90791 8.19438 9.90791 8.46956 9.63273L9.60409 8.4982C9.87926 8.22303 9.87926 7.77687 9.60409 7.50174"></path><path d="M6.08631 1.33514e-05C5.52769 1.33514e-05 5.07482 0.452888 5.07482 1.01151V3.10595L3.24723 2.05078C2.76346 1.77147 2.14483 1.93721 1.86552 2.42103C1.58621 2.9048 1.75196 3.52342 2.23573 3.80273L5.44438 5.65524C5.619 5.79883 5.84259 5.88508 6.08631 5.88508C6.64494 5.88508 7.09781 5.43221 7.09781 4.87359V1.01151C7.09781 0.452888 6.64494 1.33514e-05 6.08631 1.33514e-05"></path><path d="M5.2911 8.38388C5.29735 8.3687 5.30351 8.35358 5.30898 8.33808C5.3151 8.3208 5.32048 8.30346 5.32562 8.28599C5.32958 8.27257 5.33349 8.25923 5.33689 8.24572C5.34158 8.227 5.34553 8.20829 5.34912 8.18944C5.35165 8.17615 5.35404 8.16291 5.35606 8.14953C5.35882 8.13114 5.36093 8.1128 5.36264 8.09431C5.36402 8.07965 5.36516 8.06503 5.36595 8.05031C5.36677 8.03353 5.36705 8.0168 5.36705 8.00001C5.36705 7.98323 5.36677 7.96654 5.36595 7.94976C5.36516 7.935 5.36402 7.92038 5.36264 7.90576C5.36093 7.88728 5.35882 7.86893 5.35606 7.85045C5.35404 7.83712 5.35165 7.82387 5.34912 7.81059C5.34553 7.79178 5.34158 7.77307 5.33689 7.75436C5.33349 7.74084 5.32958 7.72746 5.32562 7.71408C5.32048 7.69661 5.3151 7.67923 5.30898 7.66194C5.30351 7.6465 5.29735 7.63132 5.2911 7.61615C5.28512 7.60158 5.27919 7.58705 5.27247 7.57266C5.26397 7.55445 5.2545 7.53666 5.24493 7.51895C5.24047 7.51077 5.23698 7.50236 5.23234 7.49427C5.23054 7.49114 5.22834 7.48838 5.2265 7.4853C5.21537 7.4664 5.20314 7.44815 5.19073 7.42999C5.18411 7.4202 5.17772 7.41013 5.17077 7.40066C5.15877 7.38438 5.14576 7.36884 5.1328 7.35321C5.12401 7.34268 5.1156 7.33187 5.1065 7.32176C5.09514 7.30925 5.08291 7.29748 5.07091 7.28544C5.05887 7.27344 5.04709 7.26116 5.03459 7.24985C5.02447 7.24079 5.01367 7.23233 5.00314 7.2236C4.98751 7.21059 4.97201 7.19757 4.95569 7.18562C4.94622 7.17863 4.93615 7.17224 4.92636 7.16562C4.9082 7.15321 4.88995 7.14102 4.87105 7.12985C4.86797 7.12806 4.86521 7.12585 4.86208 7.12406L1.51743 5.19302C1.03361 4.91366 0.414992 5.07945 0.135682 5.56323C-0.143629 6.04704 0.0221181 6.66567 0.505935 6.94498L2.33334 8.00001L0.505935 9.0551C0.0221181 9.33441 -0.143629 9.95303 0.135682 10.4368C0.414992 10.9206 1.03361 11.0864 1.51743 10.8071L4.86208 8.87602C4.86521 8.87418 4.86797 8.87202 4.87105 8.87018C4.88995 8.85905 4.9082 8.84682 4.92636 8.83445C4.93615 8.82774 4.94622 8.82144 4.95569 8.81441C4.97201 8.80245 4.98751 8.78944 5.00314 8.77643C5.01367 8.76774 5.02447 8.75928 5.03459 8.75018C5.04705 8.73887 5.05887 8.72664 5.07087 8.71459C5.08291 8.70259 5.09514 8.69077 5.1065 8.67822C5.1156 8.6682 5.12397 8.65735 5.13275 8.64691C5.14576 8.63128 5.15877 8.61569 5.17077 8.59937C5.17772 8.5899 5.18406 8.57988 5.19068 8.57008C5.20314 8.55188 5.21537 8.53362 5.22654 8.51477C5.22838 8.51165 5.23054 8.50889 5.23234 8.50576C5.23698 8.49772 5.24047 8.4893 5.24489 8.48116C5.2545 8.46337 5.26397 8.44562 5.27247 8.42732C5.27919 8.41298 5.28512 8.39841 5.2911 8.38388"></path><path d="M6.08631 10.115C5.84259 10.115 5.61905 10.2012 5.44438 10.3448L2.23573 12.1973C1.75196 12.4766 1.58621 13.0952 1.86552 13.579C2.14483 14.0628 2.76346 14.2286 3.24723 13.9493L5.07482 12.8941V14.9886C5.07482 15.5472 5.52769 16 6.08631 16C6.64494 16 7.09781 15.5472 7.09781 14.9886V11.1265C7.09781 10.5679 6.64494 10.115 6.08631 10.115"></path><path d="M13.707 12.1973L10.4984 10.3448C10.3237 10.2012 10.1002 10.115 9.85643 10.115C9.29781 10.115 8.84494 10.5679 8.84494 11.1265V14.9886C8.84494 15.5472 9.29781 16 9.85643 16C10.4151 16 10.8679 15.5472 10.8679 14.9886V12.8941L12.6955 13.9492C13.1793 14.2286 13.798 14.0628 14.0773 13.579C14.3566 13.0952 14.1908 12.4766 13.707 12.1973"></path><path d="M15.4368 9.05508L13.6094 8.00004L15.4368 6.94496C15.9206 6.66565 16.0864 6.04703 15.8071 5.56325C15.5278 5.07944 14.9091 4.91369 14.4253 5.193L11.0807 7.12404C11.0775 7.12583 11.0748 7.12804 11.0717 7.12983C11.0528 7.141 11.0346 7.15323 11.0163 7.1656C11.0066 7.17227 10.9965 7.17861 10.9871 7.1856C10.9707 7.1976 10.9552 7.21061 10.9396 7.22358C10.9291 7.23232 10.9183 7.24077 10.9082 7.24983C10.8956 7.26114 10.8839 7.27342 10.8718 7.28546C10.8598 7.29746 10.8476 7.30923 10.8362 7.32179C10.8272 7.3319 10.8187 7.34271 10.81 7.35319C10.797 7.36882 10.784 7.38436 10.772 7.40068C10.765 7.41015 10.7587 7.42018 10.752 7.42997C10.7396 7.44818 10.7274 7.46638 10.7163 7.48528C10.7144 7.48841 10.7122 7.49112 10.7104 7.49429C10.7058 7.50238 10.7022 7.51075 10.6978 7.51894C10.6883 7.53668 10.6788 7.55443 10.6703 7.57268C10.6636 7.58703 10.6576 7.6016 10.6517 7.61613C10.6454 7.6313 10.6392 7.64648 10.6338 7.66193C10.6276 7.67921 10.6223 7.69659 10.6171 7.71406C10.6132 7.72744 10.6093 7.74082 10.6059 7.75434C10.6012 7.77305 10.5972 7.79176 10.5936 7.81062C10.5911 7.8239 10.5887 7.83714 10.5867 7.85048C10.5839 7.86891 10.5818 7.88731 10.5801 7.90574C10.5787 7.92036 10.5776 7.93503 10.5768 7.94974C10.576 7.96652 10.5757 7.98326 10.5757 8.00004C10.5757 8.01678 10.576 8.03351 10.5768 8.05029C10.5776 8.06505 10.5787 8.07963 10.5801 8.09434C10.5818 8.11278 10.5839 8.13112 10.5867 8.14956C10.5887 8.16294 10.5911 8.17618 10.5936 8.18942C10.5972 8.20827 10.6012 8.22698 10.6059 8.2457C10.6093 8.25921 10.6132 8.27255 10.6171 8.28597C10.6223 8.30344 10.6276 8.32078 10.6338 8.33806C10.6392 8.35356 10.6454 8.36869 10.6517 8.38386C10.6576 8.39843 10.6636 8.41296 10.6703 8.42735C10.6788 8.44561 10.6883 8.4634 10.6979 8.48119C10.7022 8.48928 10.7058 8.4977 10.7104 8.50579C10.7122 8.50887 10.7144 8.51167 10.7162 8.51475C10.7274 8.53361 10.7396 8.5519 10.752 8.57007C10.7587 8.57986 10.765 8.58993 10.772 8.59935C10.784 8.61567 10.797 8.63126 10.81 8.64689C10.8188 8.65738 10.8272 8.66818 10.8362 8.67825C10.8476 8.69076 10.8598 8.70257 10.8719 8.71462C10.8839 8.72662 10.8957 8.73885 10.9082 8.75016C10.9183 8.75926 10.9291 8.76772 10.9396 8.77641C10.9552 8.78947 10.9707 8.80248 10.9871 8.81443C10.9965 8.82142 11.0066 8.82777 11.0163 8.83443C11.0346 8.84685 11.0528 8.85903 11.0717 8.8702C11.0748 8.87204 11.0775 8.87416 11.0807 8.876L14.4253 10.807C14.9091 11.0864 15.5278 10.9206 15.8071 10.4368C16.0864 9.95301 15.9206 9.33439 15.4368 9.05508"></path><path d="M14.0773 2.42102V2.42102C13.7979 1.93725 13.1793 1.77145 12.6955 2.05076L10.8679 3.10594V1.0115C10.8679 0.452875 10.4151 0 9.85642 0C9.2978 0 8.84493 0.452875 8.84493 1.0115V4.87357C8.84493 5.43224 9.2978 5.88507 9.85642 5.88507C10.1001 5.88507 10.3237 5.79882 10.4984 5.65523L13.707 3.80272C14.1908 3.52346 14.3566 2.90479 14.0773 2.42102"></path></svg>