<svg xmlns="http://www.w3.org/2000/svg" viewBox="0 0 256 256" width="256" height="256"><g fill="none" fill-rule="evenodd"><path fill="#00B7E3" d="M128 208c44.183 0 80-35.817 80-80s-35.817-80-80-80-80 35.817-80 80 35.817 80 80 80"/><path fill="#FFF" d="M86.492 127.74l13.626-13.66a2.444 2.444 0 0 0-1.739-4.158 2.42 2.42 0 0 0-1.735.727L83.03 124.256l-13.675-13.628a2.44 2.44 0 0 0-1.723-.706 2.443 2.443 0 0 0-2.442 2.439c0 .657.262 1.273.733 1.737l13.625 13.622-13.618 13.644a2.43 2.43 0 0 0-.74 1.748 2.443 2.443 0 0 0 4.165 1.727l13.654-13.636 13.602 13.586a2.434 2.434 0 0 0 1.769.765 2.444 2.444 0 0 0 1.73-4.164l-13.618-13.65zm81.006-.005a4.441 4.441 0 0 0 4.439 4.437 4.441 4.441 0 0 0 4.434-4.437 4.44 4.44 0 0 0-4.434-4.436 4.441 4.441 0 0 0-4.439 4.436"/><path fill="#FFF" d="M154.03 127.738c0 9.87 8.03 17.9 17.902 17.9 9.872 0 17.907-8.03 17.907-17.9 0-9.872-8.035-17.904-17.907-17.904s-17.902 8.032-17.902 17.904m5.053 0c0-7.085 5.764-12.85 12.85-12.85 7.082 0 12.846 5.765 12.846 12.85 0 7.083-5.764 12.845-12.847 12.845-7.085 0-12.849-5.762-12.849-12.845m-6.324-17.598l-.751-.002c-2.255 0-4.43.711-6.246 2.111a2.447 2.447 0 0 0-2.385-1.92 2.414 2.414 0 0 0-2.421 2.421l.008 30.153a2.445 2.445 0 0 0 2.442 2.433 2.445 2.445 0 0 0 2.44-2.437l.002-18.54c0-6.18.565-8.674 5.858-9.336.49-.06 1.022-.051 1.024-.051 1.449-.05 2.478-1.046 2.478-2.39a2.448 2.448 0 0 0-2.449-2.442m-16.753 14.19c-1.052-4.982-3.779-9.073-7.932-11.7-6.07-3.855-14.085-3.642-19.949.528-4.782 3.402-7.543 8.968-7.543 14.702 0 1.437.173 2.888.534 4.316 1.806 7.105 7.913 12.482 15.195 13.374 2.16.261 4.263.136 6.44-.428a17.628 17.628 0 0 0 5.351-2.283c1.732-1.114 3.178-2.582 4.58-4.339.028-.032.057-.06.085-.095.972-1.206.792-2.921-.276-3.74-.902-.69-2.415-.97-3.605.554-.256.365-.542.74-.856 1.115-.947 1.046-2.121 2.06-3.529 2.846a12.852 12.852 0 0 1-6.001 1.516c-7.102-.08-10.901-5.037-12.253-8.575a12.86 12.86 0 0 1-.546-2.051 4.767 4.767 0 0 1-.033-.377l25.483-.005c3.494-.072 5.374-2.538 4.855-5.359zm-30.126.46c0-.066.005-.136.008-.205 1.418-5.603 6.492-9.75 12.536-9.75 6.116 0 11.237 4.249 12.583 9.955H105.88z"/></g></svg>